<svg width="32" height="33" viewBox="0 0 32 33" fill="none" xmlns="http://www.w3.org/2000/svg">
<path d="M0 12.081C0 8.02724 0 6.00038 0.788905 4.45207C1.48285 3.09013 2.59013 1.98285 3.95207 1.28891C5.50038 0.5 7.52724 0.5 11.581 0.5H20.419C24.4728 0.5 26.4996 0.5 28.0479 1.28891C29.4099 1.98285 30.5172 3.09013 31.2111 4.45207C32 6.00038 32 8.02724 32 12.081V20.919C32 24.9728 32 26.9996 31.2111 28.5479C30.5172 29.9099 29.4099 31.0172 28.0479 31.7111C26.4996 32.5 24.4728 32.5 20.419 32.5H11.581C7.52724 32.5 5.50038 32.5 3.95207 31.7111C2.59013 31.0172 1.48285 29.9099 0.788905 28.5479C0 26.9996 0 24.9728 0 20.919V12.081Z" fill="#E6001F"/>
<path d="M5.71436 24.5C5.71436 24.5 12.8237 7.36166 12.8068 7.35718C12.8068 7.35718 12.8068 7.35718 12.8068 7.35718H12.8068H18.2059L26.2858 24.5L20.1831 24.5C20.1876 24.5091 15.6072 13.9815 15.5498 13.8757C15.5398 13.9675 12.5125 21.0133 12.476 21.022H15.7384C15.7235 21.0399 17.1569 24.4673 17.1569 24.5L5.71436 24.5Z" fill="white"/>
</svg>
