<svg width="16" height="16" viewBox="0 0 16 16" fill="none" xmlns="http://www.w3.org/2000/svg">
<path d="M9.34992 2.31375L10.4734 4.46875C10.557 4.62739 10.677 4.76397 10.8235 4.8673C10.97 4.97064 11.1389 5.03779 11.3164 5.06325L13.6894 5.38825C14.9584 5.56325 15.4504 7.12775 14.5119 7.99775L12.8869 9.49725C12.7484 9.62453 12.6444 9.78485 12.5847 9.96323C12.525 10.1416 12.5115 10.3322 12.5454 10.5173L12.9419 12.7163C13.1624 13.9413 11.8879 14.8963 10.7694 14.3363L8.50142 13.2113C8.34528 13.1348 8.17375 13.0951 7.99992 13.0951C7.82609 13.0951 7.65456 13.1348 7.49842 13.2113L5.23042 14.3363C4.11142 14.8913 2.83742 13.9413 3.05792 12.7163L3.45442 10.5168C3.52442 10.1418 3.39442 9.75675 3.11342 9.49675L1.48792 7.99775C0.54942 7.13275 1.04142 5.56275 2.31042 5.38775L4.68342 5.06275C4.86143 5.03888 5.03103 4.97236 5.1778 4.86885C5.32458 4.76534 5.44417 4.62791 5.52642 4.46825L6.65042 2.31375C7.22242 1.22875 8.78242 1.22875 9.34942 2.31375" fill="#FFB800"/>
</svg>
