<svg width="32" height="32" viewBox="0 0 32 32" fill="none" xmlns="http://www.w3.org/2000/svg">
<rect width="32" height="32" rx="16" fill="#F3F3F3"/>
<path d="M22.4323 18.9109L20.17 18.6526C19.904 18.6214 19.6343 18.6508 19.3813 18.7388C19.1283 18.8267 18.8986 18.9708 18.7093 19.1603L17.0704 20.7992C14.5421 19.513 12.487 17.4579 11.2008 14.9295L12.8486 13.2818C13.2316 12.8988 13.4186 12.3644 13.3563 11.821L13.098 9.57652C13.0477 9.14194 12.8392 8.74107 12.5123 8.45033C12.1854 8.15958 11.763 7.99929 11.3255 8H9.78464C8.77817 8 7.94092 8.83725 8.00327 9.84372C8.47533 17.4502 14.5587 23.5247 22.1562 23.9967C23.1627 24.0591 23.9999 23.2218 23.9999 22.2154V20.6745C24.0088 19.7749 23.3319 19.0178 22.4323 18.9109Z" fill="#232323"/>
</svg>
