<svg width="22" height="32" viewBox="0 0 22 32" fill="none" xmlns="http://www.w3.org/2000/svg">
<g clip-path="url(#clip0_26_427)">
<path d="M5.33582 31.9999C8.27982 31.9999 10.6692 29.6106 10.6692 26.6666V21.3333H5.33582C2.39182 21.3333 0.00248718 23.7226 0.00248718 26.6666C0.00248718 29.6106 2.39182 31.9999 5.33582 31.9999Z" fill="#0ACF83"/>
<path d="M0.00248718 16.0001C0.00248718 13.0561 2.39182 10.6667 5.33582 10.6667H10.6692V21.3334H5.33582C2.39182 21.3334 0.00248718 18.9441 0.00248718 16.0001Z" fill="#A259FF"/>
<path d="M0.00257874 5.33333C0.00257874 2.38933 2.39191 0 5.33591 0H10.6692V10.6667H5.33591C2.39191 10.6667 0.00257874 8.27733 0.00257874 5.33333Z" fill="#FF4500"/>
<path d="M10.6689 0H16.0023C18.9463 0 21.3356 2.38933 21.3356 5.33333C21.3356 8.27733 18.9463 10.6667 16.0023 10.6667H10.6689V0Z" fill="#FF7262"/>
<path d="M21.3356 16.0001C21.3356 18.9441 18.9463 21.3334 16.0023 21.3334C13.0583 21.3334 10.6689 18.9441 10.6689 16.0001C10.6689 13.0561 13.0583 10.6667 16.0023 10.6667C18.9463 10.6667 21.3356 13.0561 21.3356 16.0001Z" fill="#1ABCFE"/>
</g>
<defs>
<clipPath id="clip0_26_427">
<rect width="21.3376" height="32" fill="white"/>
</clipPath>
</defs>
</svg>
