<svg width="32" height="32" viewBox="0 0 32 32" fill="none" xmlns="http://www.w3.org/2000/svg">
<rect width="32" height="32" rx="16" fill="#F3F3F3"/>
<path d="M21.7273 10.6665H10.2728C9.76661 10.667 9.28134 10.8684 8.92344 11.2263C8.56553 11.5842 8.36422 12.0694 8.36368 12.5756V20.7574C8.36422 21.2636 8.56553 21.7488 8.92344 22.1067C9.28134 22.4647 9.76661 22.666 10.2728 22.6665H21.7273C22.2335 22.666 22.7187 22.4647 23.0766 22.1067C23.4346 21.7488 23.6359 21.2636 23.6364 20.7574V12.5756C23.6359 12.0694 23.4346 11.5842 23.0766 11.2263C22.7187 10.8684 22.2335 10.667 21.7273 10.6665ZM21.2439 13.8243L16.3348 17.6425C16.2391 17.7169 16.1213 17.7573 16 17.7573C15.8788 17.7573 15.761 17.7169 15.6653 17.6425L10.7562 13.8243C10.6985 13.7808 10.6501 13.7262 10.6137 13.6638C10.5773 13.6013 10.5536 13.5323 10.5441 13.4606C10.5347 13.389 10.5395 13.3161 10.5584 13.2464C10.5773 13.1766 10.6099 13.1113 10.6543 13.0543C10.6986 12.9972 10.7539 12.9495 10.8169 12.914C10.8798 12.8785 10.9492 12.8558 11.021 12.8474C11.0927 12.8389 11.1655 12.8448 11.235 12.8647C11.3045 12.8845 11.3693 12.918 11.4257 12.9632L16 16.5209L20.5744 12.9632C20.6887 12.8768 20.8325 12.8389 20.9746 12.8577C21.1167 12.8765 21.2457 12.9505 21.3337 13.0637C21.4217 13.1768 21.4616 13.3201 21.4448 13.4624C21.428 13.6048 21.3558 13.7348 21.2439 13.8243Z" fill="#232323"/>
</svg>
