<svg width="32" height="32" viewBox="0 0 32 32" fill="none" xmlns="http://www.w3.org/2000/svg">
<g clip-path="url(#clip0_26_472)">
<path d="M31.2366 15.2165C31.587 15.99 31.8093 16.8168 31.9003 17.6603C31.9879 18.5038 31.9441 19.3573 31.7621 20.1875C31.5836 21.0177 31.2736 21.8145 30.8424 22.548C30.5594 23.0381 30.2259 23.4982 29.8418 23.9216C29.4611 24.3417 29.0366 24.7218 28.575 25.0552C28.1101 25.3886 27.6148 25.6687 27.0893 25.8987C26.567 26.1254 26.0213 26.2988 25.462 26.4122C25.1992 27.219 24.8084 27.9825 24.303 28.6693C23.801 29.3561 23.1912 29.9596 22.4972 30.4563C21.8032 30.9564 21.035 31.3432 20.2197 31.6032C19.4044 31.8666 18.552 31.9966 17.6929 31.9966C17.1236 32 16.5508 31.94 15.9915 31.8266C15.4357 31.7099 14.8899 31.5332 14.3677 31.3032C13.8455 31.0731 13.3502 30.7864 12.8886 30.453C12.4304 30.1196 12.0059 29.7362 11.6286 29.3128C10.7863 29.4928 9.92386 29.5361 9.07149 29.4495C8.21911 29.3594 7.38358 29.1394 6.59859 28.7926C5.81697 28.4492 5.09262 27.9825 4.45587 27.4124C3.81911 26.8422 3.27669 26.1754 2.84882 25.4419C2.56245 24.9518 2.32662 24.4351 2.14806 23.8983C1.9695 23.3615 1.85158 22.8081 1.79093 22.2446C1.73029 21.6845 1.73366 21.1177 1.7943 20.5543C1.85495 19.9941 1.9796 19.4407 2.15816 18.9039C1.58542 18.2738 1.11375 17.557 0.76337 16.7835C0.416356 16.0066 0.190628 15.1831 0.103033 14.3396C0.0120678 13.4961 0.0592347 12.6426 0.237795 11.8124C0.416356 10.9823 0.72631 10.1854 1.15755 9.45195C1.44055 8.96185 1.77409 8.49842 2.15479 8.07833C2.5355 7.65824 2.96337 7.27816 3.42493 6.94476C3.88649 6.61136 4.38512 6.32796 4.90732 6.10125C5.4329 5.8712 5.97868 5.70117 6.53795 5.58781C6.80074 4.77764 7.19155 4.01748 7.69354 3.33067C8.1989 2.64386 8.8087 2.0404 9.50273 1.5403C10.1968 1.04353 10.9649 0.656782 11.7802 0.393394C12.5955 0.13334 13.4479 -2.12824e-05 14.307 0.00331275C14.8764 -2.12824e-05 15.4491 0.0566572 16.0084 0.173348C16.5677 0.290039 17.1134 0.463409 17.6357 0.693457C18.1579 0.926839 18.6531 1.21023 19.1147 1.54363C19.5762 1.88037 20.0007 2.26045 20.3781 2.68387C21.217 2.50717 22.0795 2.46383 22.9318 2.55051C23.7842 2.6372 24.6164 2.86057 25.4013 3.20398C26.183 3.55072 26.9073 4.01415 27.5441 4.58427C28.1808 5.15105 28.7232 5.81452 29.1511 6.55134C29.4375 7.03811 29.6733 7.55489 29.8519 8.095C30.0304 8.63178 30.1517 9.18523 30.209 9.74868C30.2697 10.3121 30.2697 10.8789 30.2056 11.4424C30.145 12.0058 30.0203 12.5593 29.8418 13.096C30.4179 13.7262 30.8862 14.4397 31.2366 15.2165ZM20.0108 29.4495C20.7453 29.1494 21.4124 28.706 21.975 28.1492C22.5376 27.5924 22.9857 26.9323 23.2889 26.2021C23.5922 25.4753 23.7505 24.6951 23.7505 23.9083V16.4734C23.7483 16.4667 23.746 16.459 23.7438 16.4501C23.7415 16.4434 23.7382 16.4367 23.7337 16.4301C23.7292 16.4234 23.7236 16.4178 23.7168 16.4134C23.7101 16.4067 23.7033 16.4023 23.6966 16.4001L20.9778 14.8464V23.8283C20.9778 23.9183 20.9643 24.0117 20.9407 24.0983C20.9171 24.1884 20.8834 24.2717 20.8363 24.3517C20.7891 24.4317 20.7352 24.5051 20.6678 24.5684C20.6023 24.633 20.5287 24.6891 20.4488 24.7351L14.0105 28.4126C13.9566 28.4459 13.8657 28.4926 13.8185 28.5193C14.0847 28.7426 14.3744 28.9393 14.6776 29.1127C14.9842 29.2861 15.3009 29.4328 15.6311 29.5528C15.9612 29.6695 16.3015 29.7595 16.6451 29.8195C16.9922 29.8795 17.3425 29.9095 17.6929 29.9095C18.488 29.9095 19.2764 29.7528 20.0108 29.4495ZM4.67822 24.4017C5.07914 25.0852 5.60809 25.6787 6.2381 26.1588C6.87149 26.6389 7.5891 26.9889 8.35724 27.1923C9.12539 27.3957 9.92723 27.449 10.7156 27.3457C11.504 27.2423 12.262 26.9889 12.9527 26.5955L19.4617 22.8781L19.4785 22.8614C19.483 22.857 19.4864 22.8503 19.4886 22.8414C19.4931 22.8347 19.4965 22.8281 19.4987 22.8214V19.6874L11.6421 24.185C11.5612 24.2317 11.477 24.265 11.3894 24.2917C11.2984 24.315 11.2075 24.325 11.1131 24.325C11.0222 24.325 10.9312 24.315 10.8402 24.2917C10.7527 24.265 10.6651 24.2317 10.5842 24.185L4.14591 20.5043C4.08864 20.4709 4.00441 20.4209 3.95724 20.3909C3.8966 20.7343 3.86628 21.081 3.86628 21.4278C3.86628 21.7745 3.89997 22.1213 3.96061 22.4647C4.02126 22.8047 4.11559 23.1415 4.23351 23.4682C4.35479 23.7949 4.50303 24.1083 4.67822 24.4084V24.4017ZM2.98695 10.4988C2.5894 11.1823 2.33335 11.9358 2.22891 12.716C2.12447 13.4961 2.17838 14.2863 2.38389 15.0498C2.5894 15.8099 2.94316 16.5201 3.4283 17.1469C3.91345 17.7703 4.51651 18.2938 5.2038 18.6872L11.7095 22.408C11.7162 22.4102 11.7241 22.4124 11.7331 22.4146H11.7566C11.7656 22.4146 11.7735 22.4124 11.7802 22.408C11.787 22.4058 11.7937 22.4024 11.8004 22.398L14.5294 20.8377L6.67271 16.3501C6.59522 16.3034 6.5211 16.2467 6.45372 16.1834C6.38844 16.1185 6.33183 16.0457 6.28527 15.9666C6.24147 15.8866 6.20441 15.8033 6.18083 15.7133C6.15724 15.6266 6.14377 15.5366 6.14714 15.4432V7.87162C5.81697 7.99164 5.49691 8.13834 5.19369 8.31171C4.89048 8.48841 4.6041 8.68846 4.33458 8.91184C4.06842 9.13522 3.81911 9.38194 3.59339 9.64866C3.36766 9.91205 3.16888 10.1988 2.99369 10.4988H2.98695ZM25.334 15.6466C25.4148 15.6933 25.4889 15.7466 25.5563 15.8133C25.6203 15.8766 25.6776 15.95 25.7248 16.03C25.7686 16.11 25.8056 16.1967 25.8292 16.2834C25.8494 16.3734 25.8629 16.4634 25.8595 16.5568V24.1283C26.941 23.7349 27.8844 23.0448 28.5817 22.1379C29.2825 21.2311 29.7036 20.1475 29.8014 19.0139C29.8991 17.8804 29.67 16.7401 29.1376 15.7299C28.6053 14.7197 27.7934 13.8795 26.7961 13.3128L20.2905 9.59198C20.2837 9.58976 20.2759 9.58753 20.2669 9.58531H20.2433C20.2366 9.58753 20.2287 9.58976 20.2197 9.59198C20.213 9.5942 20.2063 9.59754 20.1995 9.60198L17.484 11.1556L25.3407 15.6466H25.334ZM28.0461 11.6124H28.0427V11.6157L28.0461 11.6124ZM28.0427 11.6091C28.2381 10.4888 28.1067 9.33526 27.662 8.28504C27.2206 7.23482 26.4828 6.3313 25.5395 5.67783C24.5961 5.02769 23.4844 4.65428 22.3355 4.60427C21.1833 4.5576 20.0445 4.83432 19.0473 5.4011L12.5416 9.11855C12.5349 9.12299 12.5293 9.12855 12.5248 9.13522L12.5113 9.15522C12.5091 9.16189 12.5068 9.16967 12.5046 9.17856C12.5023 9.18523 12.5012 9.19301 12.5012 9.2019V12.3092L20.3579 7.81827C20.4387 7.7716 20.5263 7.73826 20.6139 7.71159C20.7049 7.68825 20.7958 7.67825 20.8868 7.67825C20.9811 7.67825 21.0721 7.68825 21.1631 7.71159C21.2507 7.73826 21.3349 7.7716 21.4157 7.81827L27.854 11.499C27.9113 11.5324 27.9955 11.5791 28.0427 11.6091ZM11.0188 8.16835C11.0188 8.07833 11.0323 7.98831 11.0559 7.89829C11.0795 7.81161 11.1131 7.72492 11.1603 7.64491C11.2075 7.56822 11.2614 7.49487 11.3288 7.42819C11.3928 7.36485 11.4669 7.30817 11.5478 7.26483L17.986 3.58739C18.0467 3.55072 18.1309 3.50404 18.1781 3.4807C17.2954 2.75055 16.2173 2.28379 15.0752 2.14042C13.9331 1.99373 12.7741 2.17377 11.7331 2.6572C10.6886 3.14063 9.80594 3.91079 9.1894 4.87099C8.57287 5.83453 8.24607 6.94809 8.24607 8.08833V15.5232C8.24831 15.5321 8.25056 15.5399 8.2528 15.5466C8.25505 15.5532 8.25842 15.5599 8.26291 15.5666C8.2674 15.5732 8.27302 15.5799 8.27976 15.5866C8.28425 15.591 8.29099 15.5955 8.29997 15.5999L11.0188 17.1536V8.16835ZM12.4945 17.9937L15.9949 19.9941L19.4954 17.9937V13.9962L15.9983 11.9958L12.4978 13.9962L12.4945 17.9937Z" fill="black"/>
</g>
<defs>
<clipPath id="clip0_26_472">
<rect width="32" height="32" fill="white"/>
</clipPath>
</defs>
</svg>
