<svg width="32" height="32" viewBox="0 0 32 32" fill="none" xmlns="http://www.w3.org/2000/svg">
<rect width="32" height="32" rx="16" fill="#F3F3F3"/>
<path d="M11.4944 10.9639C11.4942 11.396 11.3223 11.8104 11.0165 12.1159C10.7108 12.4213 10.2962 12.5928 9.86401 12.5926C9.43183 12.5924 9.01744 12.4205 8.712 12.1147C8.40655 11.809 8.23507 11.3944 8.23529 10.9622C8.23551 10.53 8.4074 10.1156 8.71315 9.8102C9.0189 9.50476 9.43346 9.33328 9.86564 9.3335C10.2978 9.33371 10.7122 9.5056 11.0177 9.81135C11.3231 10.1171 11.4946 10.5317 11.4944 10.9639ZM11.5433 13.7992H8.28418V24.0002H11.5433V13.7992ZM16.6926 13.7992H13.4498V24.0002H16.66V18.6471C16.66 15.6651 20.5465 15.388 20.5465 18.6471V24.0002H23.7648V17.539C23.7648 12.5119 18.0125 12.6993 16.66 15.1681L16.6926 13.7992Z" fill="#232323"/>
</svg>
