<svg width="268" height="272" viewBox="0 0 268 272" fill="none" xmlns="http://www.w3.org/2000/svg">
<path d="M151.136 74.8701C151.136 116.22 117.303 149.74 75.5681 149.74C33.833 149.74 0 116.22 0 74.8701C0 33.5205 33.833 0 75.5681 0C117.303 0 151.136 33.5205 151.136 74.8701Z" fill="#FF4500"/>
<path d="M268 74.8701C268 116.22 234.167 149.74 192.432 149.74C150.697 149.74 116.864 116.22 116.864 74.8701C116.864 33.5205 150.697 0 192.432 0C234.167 0 268 33.5205 268 74.8701Z" fill="#FF4500"/>
<path d="M268 197.13C268 238.48 234.167 272 192.432 272C150.697 272 116.864 238.48 116.864 197.13C116.864 155.78 150.697 122.26 192.432 122.26C234.167 122.26 268 155.78 268 197.13Z" fill="#FF4500"/>
<path d="M151.136 197.13C151.136 238.48 117.303 272 75.5681 272C33.833 272 0 238.48 0 197.13C0 155.78 33.833 122.26 75.5681 122.26C117.303 122.26 151.136 155.78 151.136 197.13Z" fill="#FF4500"/>
<path d="M103.941 96.4619H178.105V157.592H103.941V96.4619Z" fill="#FF4500"/>
</svg>
