<svg width="16" height="12" viewBox="0 0 16 12" fill="none" xmlns="http://www.w3.org/2000/svg">
<path d="M13.3636 0H1.90909C1.40293 0.000541441 0.917665 0.201851 0.559758 0.559758C0.201851 0.917665 0.000541441 1.40293 0 1.90909V10.0909C0.000541441 10.5971 0.201851 11.0823 0.559758 11.4402C0.917665 11.7981 1.40293 11.9995 1.90909 12H13.3636C13.8698 11.9995 14.3551 11.7981 14.713 11.4402C15.0709 11.0823 15.2722 10.5971 15.2727 10.0909V1.90909C15.2722 1.40293 15.0709 0.917665 14.713 0.559758C14.3551 0.201851 13.8698 0.000541441 13.3636 0ZM12.8802 3.15784L7.97114 6.97602C7.87541 7.05044 7.75761 7.09084 7.63636 7.09084C7.51511 7.09084 7.39732 7.05044 7.30159 6.97602L2.3925 3.15784C2.33482 3.11428 2.28638 3.0597 2.24998 2.99726C2.21358 2.93482 2.18995 2.86576 2.18047 2.79411C2.17099 2.72246 2.17584 2.64964 2.19475 2.57988C2.21366 2.51012 2.24624 2.44481 2.2906 2.38776C2.33497 2.3307 2.39023 2.28302 2.45317 2.24751C2.51612 2.21199 2.5855 2.18934 2.65728 2.18087C2.72906 2.17239 2.8018 2.17827 2.87129 2.19816C2.94078 2.21804 3.00562 2.25154 3.06205 2.2967L7.63636 5.85443L12.2107 2.2967C12.3251 2.21033 12.4689 2.17244 12.6109 2.19124C12.753 2.21005 12.882 2.28402 12.97 2.39718C13.058 2.51033 13.0979 2.65357 13.0811 2.79592C13.0643 2.93826 12.9921 3.06828 12.8802 3.15784Z" fill="#F3F3F3"/>
</svg>
