<svg width="79" height="55" viewBox="0 0 79 55" fill="none" xmlns="http://www.w3.org/2000/svg">
<rect width="79" height="55" fill="white"/>
<path d="M26.6891 22.4832C26.6891 23.2377 26.7672 23.8495 26.9039 24.2981C27.0601 24.7468 27.2554 25.2362 27.5288 25.7664C27.6264 25.9296 27.6655 26.0927 27.6655 26.2355C27.6655 26.4394 27.5483 26.6433 27.2944 26.8473L26.0642 27.7038C25.8884 27.8261 25.7127 27.8873 25.5565 27.8873C25.3612 27.8873 25.1659 27.7853 24.9706 27.6018C24.6972 27.2959 24.4629 26.9696 24.2676 26.6433C24.0723 26.2966 23.8771 25.9092 23.6623 25.4401C22.1391 27.3163 20.2254 28.2544 17.9211 28.2544C16.2807 28.2544 14.9724 27.7649 14.0155 26.7861C13.0586 25.8072 12.5704 24.5021 12.5704 22.8706C12.5704 21.1372 13.1563 19.7301 14.3475 18.6697C15.5387 17.6092 17.1204 17.079 19.1318 17.079C19.7957 17.079 20.4792 17.1402 21.2018 17.2421C21.9243 17.3441 22.6663 17.5073 23.4475 17.6908V16.2021C23.4475 14.6522 23.135 13.5714 22.5296 12.9392C21.9048 12.307 20.8502 12.0011 19.3466 12.0011C18.6631 12.0011 17.9601 12.0827 17.2376 12.2662C16.5151 12.4498 15.8121 12.6741 15.1286 12.9596C14.8161 13.1024 14.5818 13.1839 14.4451 13.2247C14.3084 13.2655 14.2108 13.2859 14.1327 13.2859C13.8593 13.2859 13.7226 13.082 13.7226 12.6537V11.6545C13.7226 11.3282 13.7616 11.0834 13.8593 10.9407C13.9569 10.7979 14.1327 10.6552 14.4061 10.5124C15.0895 10.1454 15.9097 9.83947 16.8666 9.59476C17.8234 9.32965 18.8389 9.20729 19.9129 9.20729C22.2367 9.20729 23.9357 9.7579 25.0292 10.8591C26.1032 11.9603 26.65 13.6326 26.65 15.8758V22.4832H26.6891ZM18.7608 25.5829C19.4052 25.5829 20.0691 25.4605 20.7721 25.2158C21.4751 24.9711 22.1 24.5225 22.6273 23.9107C22.9397 23.5232 23.1741 23.0949 23.2912 22.6055C23.4084 22.1161 23.4865 21.5247 23.4865 20.8313V19.9748C22.9202 19.8321 22.3148 19.7097 21.6899 19.6281C21.0651 19.5466 20.4597 19.5058 19.8543 19.5058C18.546 19.5058 17.5891 19.7709 16.9447 20.3215C16.3003 20.8721 15.9878 21.647 15.9878 22.6667C15.9878 23.6252 16.2221 24.3389 16.7103 24.8284C17.179 25.3382 17.8625 25.5829 18.7608 25.5829ZM34.4416 27.7853C34.0901 27.7853 33.8558 27.7242 33.6996 27.5814C33.5434 27.4591 33.4067 27.1735 33.2895 26.7861L28.7005 11.0223C28.5833 10.6144 28.5247 10.3493 28.5247 10.2065C28.5247 9.88026 28.6809 9.69672 28.9934 9.69672H30.9071C31.2781 9.69672 31.532 9.7579 31.6687 9.90065C31.8249 10.023 31.9421 10.3085 32.0592 10.696L35.3399 24.1962L38.3863 10.696C38.4839 10.2881 38.6011 10.023 38.7573 9.90065C38.9135 9.77829 39.1869 9.69672 39.5384 9.69672H41.1006C41.4717 9.69672 41.7255 9.7579 41.8818 9.90065C42.038 10.023 42.1747 10.3085 42.2528 10.696L45.3382 24.3593L48.7165 10.696C48.8337 10.2881 48.9704 10.023 49.1071 9.90065C49.2633 9.77829 49.5172 9.69672 49.8687 9.69672H51.6847C51.9972 9.69672 52.1729 9.85987 52.1729 10.2065C52.1729 10.3085 52.1534 10.4105 52.1339 10.5328C52.1144 10.6552 52.0753 10.8183 51.9972 11.0427L47.291 26.8065C47.1738 27.2143 47.0371 27.4794 46.8809 27.6018C46.7247 27.7242 46.4708 27.8057 46.1388 27.8057H44.4594C44.0884 27.8057 43.8345 27.7446 43.6783 27.6018C43.5221 27.4591 43.3854 27.1939 43.3073 26.7861L40.2805 13.6326L37.2732 26.7657C37.1755 27.1735 37.0584 27.4387 36.9022 27.5814C36.7459 27.7242 36.4725 27.7853 36.121 27.7853H34.4416ZM59.535 28.336C58.5195 28.336 57.5041 28.2136 56.5277 27.9689C55.5513 27.7242 54.7897 27.4591 54.282 27.1532C53.9695 26.9696 53.7547 26.7657 53.6766 26.5822C53.5985 26.3986 53.5594 26.1947 53.5594 26.0111V24.9711C53.5594 24.5428 53.7156 24.3389 54.0086 24.3389C54.1257 24.3389 54.2429 24.3593 54.3601 24.4001C54.4772 24.4409 54.653 24.5225 54.8483 24.604C55.5122 24.9099 56.2347 25.1546 56.9963 25.3178C57.7774 25.4809 58.539 25.5625 59.3201 25.5625C60.5504 25.5625 61.5073 25.3382 62.1712 24.8895C62.8352 24.4409 63.1867 23.7883 63.1867 22.9522C63.1867 22.3812 63.0109 21.9121 62.6594 21.5247C62.3079 21.1372 61.644 20.7905 60.6871 20.4642L57.8556 19.5466C56.43 19.0775 55.3755 18.3842 54.7311 17.4665C54.0867 16.5692 53.7547 15.5699 53.7547 14.5095C53.7547 13.653 53.9305 12.8984 54.282 12.2459C54.6335 11.5933 55.1021 11.0223 55.688 10.5736C56.2738 10.1046 56.9377 9.7579 57.7189 9.51319C58.5 9.26847 59.3201 9.1665 60.1794 9.1665C60.609 9.1665 61.0581 9.1869 61.4877 9.24808C61.9369 9.30926 62.347 9.39083 62.757 9.4724C63.1476 9.57436 63.5186 9.67633 63.8701 9.79869C64.2216 9.92105 64.495 10.0434 64.6903 10.1658C64.9637 10.3289 65.159 10.4921 65.2761 10.6756C65.3933 10.8387 65.4519 11.0631 65.4519 11.3486V12.307C65.4519 12.7353 65.2957 12.9596 65.0028 12.9596C64.8465 12.9596 64.5927 12.878 64.2607 12.7149C63.1476 12.1847 61.8978 11.9196 60.5113 11.9196C59.3983 11.9196 58.5195 12.1031 57.9141 12.4906C57.3088 12.878 56.9963 13.4694 56.9963 14.3055C56.9963 14.8766 57.1916 15.366 57.5822 15.7535C57.9727 16.1409 58.6953 16.5284 59.7302 16.8751L62.5032 17.7928C63.9092 18.2618 64.9246 18.9144 65.53 19.7505C66.1354 20.5866 66.4283 21.5451 66.4283 22.6055C66.4283 23.4824 66.2525 24.2777 65.9206 24.9711C65.5691 25.6645 65.1004 26.2763 64.495 26.7657C63.8897 27.2755 63.1671 27.6426 62.3274 27.9077C61.4487 28.1932 60.5309 28.336 59.535 28.336Z" fill="#252F3E"/>
<path fill-rule="evenodd" clip-rule="evenodd" d="M63.2257 38.2467C56.8011 43.2022 47.4667 45.8329 39.4408 45.8329C28.1927 45.8329 18.0577 41.4892 10.4028 34.2701C9.79745 33.699 10.3442 32.9241 11.0668 33.3728C19.3466 38.3895 29.5597 41.428 40.1242 41.428C47.2519 41.428 55.0826 39.8782 62.2884 36.6968C63.3624 36.187 64.2802 37.431 63.2257 38.2467Z" fill="#FF9900"/>
<path fill-rule="evenodd" clip-rule="evenodd" d="M65.901 35.0655C65.0808 33.9643 60.4722 34.5353 58.3828 34.8004C57.7579 34.882 57.6602 34.311 58.2265 33.8827C61.8978 31.1909 67.9319 31.9658 68.6349 32.8631C69.3379 33.7808 68.4396 40.0822 65.0027 43.1004C64.4754 43.5695 63.9677 43.3247 64.2021 42.7129C64.9832 40.694 66.7211 36.1464 65.901 35.0655Z" fill="#FF9900"/>
</svg>
