<svg width="152" height="101" viewBox="0 0 152 101" fill="none" xmlns="http://www.w3.org/2000/svg">
<rect width="151.5" height="101" fill="#1E1E1E"/>
<path d="M51.1821 41.2875C51.1821 42.6731 51.3319 43.7966 51.594 44.6205C51.8936 45.4444 52.2681 46.3431 52.7924 47.3168C52.9796 47.6164 53.0545 47.916 53.0545 48.1781C53.0545 48.5526 52.8298 48.9271 52.343 49.3016L49.9837 50.8745C49.6467 51.0992 49.3096 51.2115 49.01 51.2115C48.6355 51.2115 48.2611 51.0243 47.8866 50.6872C47.3623 50.1255 46.9129 49.5263 46.5384 48.9271C46.1639 48.2905 45.7894 47.579 45.3775 46.7176C42.4565 50.1629 38.7865 51.8856 34.3675 51.8856C31.2218 51.8856 28.7127 50.9868 26.8777 49.1893C25.0427 47.3917 24.1064 44.995 24.1064 41.9991C24.1064 38.8159 25.2299 36.2319 27.5143 34.2846C29.7987 32.3372 32.8321 31.3635 36.6893 31.3635C37.9626 31.3635 39.2733 31.4759 40.6589 31.6631C42.0445 31.8504 43.4676 32.15 44.9655 32.487V29.7532C44.9655 26.9071 44.3664 24.9223 43.2054 23.7614C42.0071 22.6005 39.9848 22.0387 37.1012 22.0387C35.7905 22.0387 34.4424 22.1885 33.0568 22.5256C31.6711 22.8626 30.323 23.2745 29.0123 23.7988C28.4131 24.061 27.9637 24.2108 27.7015 24.2857C27.4394 24.3606 27.2522 24.398 27.1024 24.398C26.5781 24.398 26.3159 24.0235 26.3159 23.2371V21.4021C26.3159 20.8029 26.3908 20.3535 26.5781 20.0914C26.7653 19.8292 27.1024 19.5671 27.6267 19.3049C28.9374 18.6309 30.5102 18.0691 32.3452 17.6197C34.1802 17.1329 36.1276 16.9082 38.1873 16.9082C42.6437 16.9082 45.9018 17.9193 47.9989 19.9416C50.0586 21.9638 51.1072 25.0346 51.1072 29.154V41.2875H51.1821ZM35.9778 46.9798C37.2136 46.9798 38.4869 46.7551 39.835 46.3057C41.1832 45.8563 42.3816 45.0324 43.3927 43.909C43.9919 43.1974 44.4413 42.411 44.6659 41.5122C44.8906 40.6134 45.0404 39.5274 45.0404 38.2542V36.6813C43.9544 36.4191 42.7935 36.1945 41.5951 36.0447C40.3968 35.8949 39.2358 35.82 38.0749 35.82C35.5658 35.82 33.7308 36.3068 32.495 37.3179C31.2592 38.329 30.66 39.7521 30.66 41.6246C30.66 43.3847 31.1094 44.6954 32.0456 45.5942C32.9444 46.5304 34.2551 46.9798 35.9778 46.9798V46.9798ZM66.0493 51.0243C65.3752 51.0243 64.9259 50.9119 64.6263 50.6498C64.3267 50.4251 64.0645 49.9008 63.8398 49.1893L55.0393 20.2412C54.8146 19.4922 54.7023 19.0054 54.7023 18.7432C54.7023 18.144 55.0019 17.807 55.6011 17.807H59.2711C59.9826 17.807 60.4694 17.9193 60.7316 18.1815C61.0312 18.4062 61.2559 18.9305 61.4806 19.642L67.772 44.4332L73.614 19.642C73.8013 18.893 74.026 18.4062 74.3256 18.1815C74.6251 17.9568 75.1494 17.807 75.8235 17.807H78.8194C79.531 17.807 80.0178 17.9193 80.3174 18.1815C80.617 18.4062 80.8791 18.9305 81.0289 19.642L86.9459 44.7328L93.4246 19.642C93.6492 18.893 93.9114 18.4062 94.1735 18.1815C94.4731 17.9568 94.96 17.807 95.634 17.807H99.1168C99.716 17.807 100.053 18.1066 100.053 18.7432C100.053 18.9305 100.016 19.1177 99.9781 19.3424C99.9407 19.5671 99.8658 19.8667 99.716 20.2786L90.6908 49.2267C90.4661 49.9757 90.2039 50.4625 89.9043 50.6872C89.6048 50.9119 89.1179 51.0617 88.4813 51.0617H85.2607C84.5491 51.0617 84.0623 50.9494 83.7627 50.6872C83.4631 50.4251 83.201 49.9382 83.0512 49.1893L77.2466 25.0346L71.4794 49.1518C71.2922 49.9008 71.0675 50.3876 70.7679 50.6498C70.4683 50.9119 69.944 51.0243 69.2699 51.0243H66.0493ZM114.171 52.0354C112.224 52.0354 110.277 51.8107 108.404 51.3613C106.532 50.9119 105.071 50.4251 104.098 49.8633C103.498 49.5263 103.086 49.1518 102.937 48.8148C102.787 48.4777 102.712 48.1032 102.712 47.7662V45.8563C102.712 45.0699 103.011 44.6954 103.573 44.6954C103.798 44.6954 104.023 44.7328 104.247 44.8077C104.472 44.8826 104.809 45.0324 105.184 45.1822C106.457 45.744 107.842 46.1933 109.303 46.4929C110.801 46.7925 112.261 46.9423 113.759 46.9423C116.119 46.9423 117.954 46.5304 119.227 45.7065C120.5 44.8826 121.174 43.6843 121.174 42.1488C121.174 41.1003 120.837 40.2389 120.163 39.5274C119.489 38.8159 118.216 38.1793 116.381 37.5801L110.951 35.8949C108.217 35.0335 106.195 33.7603 104.959 32.0751C103.723 30.4273 103.086 28.5923 103.086 26.645C103.086 25.0721 103.423 23.6865 104.098 22.4881C104.772 21.2897 105.67 20.2412 106.794 19.4173C107.917 18.556 109.191 17.9193 110.689 17.4699C112.187 17.0206 113.759 16.8333 115.407 16.8333C116.231 16.8333 117.092 16.8708 117.916 16.9831C118.778 17.0955 119.564 17.2453 120.35 17.395C121.099 17.5823 121.811 17.7695 122.485 17.9942C123.159 18.2189 123.683 18.4436 124.058 18.6683C124.582 18.9679 124.957 19.2675 125.181 19.6045C125.406 19.9041 125.518 20.3161 125.518 20.8404V22.6005C125.518 23.3869 125.219 23.7988 124.657 23.7988C124.357 23.7988 123.871 23.649 123.234 23.3494C121.099 22.3758 118.703 21.8889 116.044 21.8889C113.909 21.8889 112.224 22.226 111.063 22.9375C109.902 23.649 109.303 24.7351 109.303 26.2705C109.303 27.319 109.677 28.2178 110.426 28.9293C111.175 29.6409 112.561 30.3524 114.546 30.989L119.864 32.6742C122.56 33.5356 124.507 34.7339 125.668 36.2694C126.829 37.8048 127.391 39.5649 127.391 41.5122C127.391 43.1225 127.054 44.583 126.417 45.8563C125.743 47.1296 124.844 48.253 123.683 49.1518C122.522 50.088 121.137 50.7621 119.527 51.249C117.841 51.7732 116.081 52.0354 114.171 52.0354V52.0354Z" fill="white"/>
<path fill-rule="evenodd" clip-rule="evenodd" d="M121.249 70.2356C108.929 79.3358 91.0279 84.1667 75.6363 84.1667C54.0657 84.1667 34.6297 76.19 19.9496 62.9331C18.7887 61.8845 19.8373 60.4614 21.2229 61.2853C37.1013 70.4978 56.6871 76.0777 76.9471 76.0777C90.6159 76.0777 105.633 73.2316 119.452 67.3895C121.511 66.4533 123.272 68.7377 121.249 70.2356V70.2356Z" fill="#FF9900"/>
<path fill-rule="evenodd" clip-rule="evenodd" d="M126.38 64.3936C124.807 62.3713 115.969 63.4199 111.962 63.9067C110.764 64.0565 110.576 63.0079 111.662 62.2215C118.703 57.2782 130.274 58.7013 131.623 60.349C132.971 62.0343 131.248 73.606 124.657 79.1485C123.646 80.0098 122.672 79.5604 123.122 78.437C124.62 74.7295 127.953 66.3784 126.38 64.3936V64.3936Z" fill="#FF9900"/>
</svg>
