<svg width="569" height="55" viewBox="0 0 569 55" fill="none" xmlns="http://www.w3.org/2000/svg">
<path d="M11.6275 42.7385C9.15279 42.7385 7.12279 42.3518 5.53745 41.5785C3.95212 40.7665 2.77279 39.7031 1.99945 38.3885C1.22612 37.0738 0.839453 35.6238 0.839453 34.0385C0.839453 31.3705 1.88345 29.2051 3.97145 27.5425C6.05945 25.8798 9.19145 25.0485 13.3675 25.0485H20.6755V24.3525C20.6755 22.3805 20.1148 20.9305 18.9935 20.0025C17.8721 19.0745 16.4801 18.6105 14.8175 18.6105C13.3095 18.6105 11.9948 18.9778 10.8735 19.7125C9.75212 20.4085 9.05612 21.4525 8.78545 22.8445H1.53545C1.72879 20.7565 2.42479 18.9391 3.62345 17.3925C4.86079 15.8458 6.44612 14.6665 8.37945 13.8545C10.3128 13.0038 12.4781 12.5785 14.8755 12.5785C18.9741 12.5785 22.2028 13.6031 24.5615 15.6525C26.9201 17.7018 28.0995 20.6018 28.0995 24.3525V42.0425H21.7775L21.0815 37.4025C20.2308 38.9491 19.0321 40.2251 17.4855 41.2305C15.9775 42.2358 14.0248 42.7385 11.6275 42.7385ZM13.3095 36.9385C15.4361 36.9385 17.0795 36.2425 18.2395 34.8505C19.4381 33.4585 20.1921 31.7378 20.5015 29.6885H14.1795C12.2075 29.6885 10.7961 30.0558 9.94545 30.7905C9.09479 31.4865 8.66945 32.3565 8.66945 33.4005C8.66945 34.5218 9.09479 35.3918 9.94545 36.0105C10.7961 36.6291 11.9175 36.9385 13.3095 36.9385ZM51.2361 42.7385C49.0707 42.7385 47.1761 42.3325 45.5521 41.5205C43.9281 40.7085 42.6134 39.5678 41.6081 38.0985L40.7961 42.0425H34.1841V0.282479H41.6081V17.3925C42.5361 16.1165 43.7541 14.9951 45.2621 14.0285C46.8087 13.0618 48.8001 12.5785 51.2361 12.5785C53.9427 12.5785 56.3594 13.2358 58.4861 14.5505C60.6127 15.8651 62.2947 17.6631 63.5321 19.9445C64.7694 22.2258 65.3881 24.8165 65.3881 27.7165C65.3881 30.6165 64.7694 33.2071 63.5321 35.4885C62.2947 37.7311 60.6127 39.5098 58.4861 40.8245C56.3594 42.1005 53.9427 42.7385 51.2361 42.7385ZM49.6701 36.2425C52.0287 36.2425 53.9814 35.4498 55.5281 33.8645C57.0747 32.2791 57.8481 30.2298 57.8481 27.7165C57.8481 25.2031 57.0747 23.1345 55.5281 21.5105C53.9814 19.8865 52.0287 19.0745 49.6701 19.0745C47.2727 19.0745 45.3007 19.8865 43.7541 21.5105C42.2461 23.0958 41.4921 25.1451 41.4921 27.6585C41.4921 30.1718 42.2461 32.2405 43.7541 33.8645C45.3007 35.4498 47.2727 36.2425 49.6701 36.2425ZM75.022 8.80848C73.6687 8.80848 72.5473 8.40248 71.658 7.59048C70.8073 6.77848 70.382 5.75381 70.382 4.51648C70.382 3.27915 70.8073 2.27381 71.658 1.50048C72.5473 0.688478 73.6687 0.282479 75.022 0.282479C76.3753 0.282479 77.4773 0.688478 78.328 1.50048C79.2173 2.27381 79.662 3.27915 79.662 4.51648C79.662 5.75381 79.2173 6.77848 78.328 7.59048C77.4773 8.40248 76.3753 8.80848 75.022 8.80848ZM71.31 42.0425V13.2745H78.734V42.0425H71.31ZM97.3729 42.7385C94.8209 42.7385 92.5782 42.3325 90.6449 41.5205C88.7116 40.6698 87.1649 39.5098 86.0049 38.0405C84.8449 36.5711 84.1489 34.8698 83.9169 32.9365H91.3989C91.6309 34.0578 92.2496 35.0245 93.2549 35.8365C94.2989 36.6098 95.6329 36.9965 97.2569 36.9965C98.8809 36.9965 100.06 36.6678 100.795 36.0105C101.568 35.3531 101.955 34.5991 101.955 33.7485C101.955 32.5111 101.414 31.6798 100.331 31.2545C99.2482 30.7905 97.7402 30.3458 95.8069 29.9205C94.5696 29.6498 93.3129 29.3211 92.0369 28.9345C90.7609 28.5478 89.5816 28.0645 88.4989 27.4845C87.4549 26.8658 86.6042 26.0925 85.9469 25.1645C85.2896 24.1978 84.9609 23.0185 84.9609 21.6265C84.9609 19.0745 85.9662 16.9285 87.9769 15.1885C90.0262 13.4485 92.8876 12.5785 96.5609 12.5785C99.9636 12.5785 102.67 13.3711 104.681 14.9565C106.73 16.5418 107.948 18.7265 108.335 21.5105H101.317C100.892 19.3838 99.2869 18.3205 96.5029 18.3205C95.1109 18.3205 94.0282 18.5911 93.2549 19.1325C92.5202 19.6738 92.1529 20.3505 92.1529 21.1625C92.1529 22.0131 92.7136 22.6898 93.8349 23.1925C94.9562 23.6951 96.4449 24.1591 98.3009 24.5845C100.312 25.0485 102.148 25.5705 103.811 26.1505C105.512 26.6918 106.866 27.5231 107.871 28.6445C108.876 29.7271 109.379 31.2931 109.379 33.3425C109.418 35.1211 108.954 36.7258 107.987 38.1565C107.02 39.5871 105.628 40.7085 103.811 41.5205C101.994 42.3325 99.8476 42.7385 97.3729 42.7385ZM124.874 42.7385C122.399 42.7385 120.369 42.3518 118.784 41.5785C117.198 40.7665 116.019 39.7031 115.246 38.3885C114.472 37.0738 114.086 35.6238 114.086 34.0385C114.086 31.3705 115.13 29.2051 117.218 27.5425C119.306 25.8798 122.438 25.0485 126.614 25.0485H133.922V24.3525C133.922 22.3805 133.361 20.9305 132.24 20.0025C131.118 19.0745 129.726 18.6105 128.064 18.6105C126.556 18.6105 125.241 18.9778 124.12 19.7125C122.998 20.4085 122.302 21.4525 122.032 22.8445H114.782C114.975 20.7565 115.671 18.9391 116.87 17.3925C118.107 15.8458 119.692 14.6665 121.626 13.8545C123.559 13.0038 125.724 12.5785 128.122 12.5785C132.22 12.5785 135.449 13.6031 137.808 15.6525C140.166 17.7018 141.346 20.6018 141.346 24.3525V42.0425H135.024L134.328 37.4025C133.477 38.9491 132.278 40.2251 130.732 41.2305C129.224 42.2358 127.271 42.7385 124.874 42.7385ZM126.556 36.9385C128.682 36.9385 130.326 36.2425 131.486 34.8505C132.684 33.4585 133.438 31.7378 133.748 29.6885H127.426C125.454 29.6885 124.042 30.0558 123.192 30.7905C122.341 31.4865 121.916 32.3565 121.916 33.4005C121.916 34.5218 122.341 35.3918 123.192 36.0105C124.042 36.6291 125.164 36.9385 126.556 36.9385ZM147.43 42.0425V0.282479H154.854V42.0425H147.43ZM165.442 8.80848C164.089 8.80848 162.967 8.40248 162.078 7.59048C161.227 6.77848 160.802 5.75381 160.802 4.51648C160.802 3.27915 161.227 2.27381 162.078 1.50048C162.967 0.688478 164.089 0.282479 165.442 0.282479C166.795 0.282479 167.897 0.688478 168.748 1.50048C169.637 2.27381 170.082 3.27915 170.082 4.51648C170.082 5.75381 169.637 6.77848 168.748 7.59048C167.897 8.40248 166.795 8.80848 165.442 8.80848ZM161.73 42.0425V13.2745H169.154V42.0425H161.73ZM197.827 54.3385C193.535 54.3385 189.784 53.5071 186.575 51.8445C183.365 50.2205 180.871 47.9005 179.093 44.8845C177.314 41.9071 176.425 38.3691 176.425 34.2705C176.425 29.9785 177.179 25.9958 178.687 22.3225C180.195 18.6491 182.302 15.4591 185.009 12.7525C187.754 10.0071 190.963 7.88048 194.637 6.37248C198.31 4.86448 202.331 4.11048 206.701 4.11048C211.186 4.11048 215.053 4.96115 218.301 6.66248C221.587 8.32515 224.12 10.6645 225.899 13.6805C227.677 16.6965 228.567 20.1765 228.567 24.1205C228.567 26.4405 228.257 28.7025 227.639 30.9065C227.059 33.0718 226.189 35.0245 225.029 36.7645C223.907 38.4658 222.496 39.8191 220.795 40.8245C219.132 41.8298 217.218 42.3325 215.053 42.3325C213.042 42.3325 211.437 41.8878 210.239 40.9985C209.04 40.1091 208.286 38.8911 207.977 37.3445C206.855 38.9298 205.405 40.1865 203.627 41.1145C201.887 42.0038 200.011 42.4485 198.001 42.4485C195.062 42.4485 192.781 41.5785 191.157 39.8385C189.533 38.0598 188.721 35.6625 188.721 32.6465C188.721 30.5585 189.049 28.5478 189.707 26.6145C190.364 24.6425 191.292 22.9025 192.491 21.3945C193.728 19.8478 195.178 18.6298 196.841 17.7405C198.542 16.8511 200.398 16.4065 202.409 16.4065C206.005 16.4065 208.363 17.7791 209.485 20.5245L210.123 16.9285H216.213L213.487 32.4725C213.255 33.9805 213.293 35.1985 213.603 36.1265C213.951 37.0158 214.782 37.4605 216.097 37.4605C217.218 37.4605 218.185 37.0738 218.997 36.3005C219.847 35.4885 220.543 34.4445 221.085 33.1685C221.665 31.8538 222.09 30.4425 222.361 28.9345C222.67 27.3878 222.825 25.8798 222.825 24.4105C222.825 19.6931 221.336 15.9811 218.359 13.2745C215.381 10.5291 211.244 9.15648 205.947 9.15648C202.505 9.15648 199.335 9.79448 196.435 11.0705C193.573 12.3078 191.06 14.0478 188.895 16.2905C186.768 18.5331 185.105 21.1431 183.907 24.1205C182.747 27.0591 182.167 30.2298 182.167 33.6325C182.167 38.5818 183.636 42.4098 186.575 45.1165C189.513 47.8618 193.573 49.2345 198.755 49.2345C200.495 49.2345 202.215 49.0605 203.917 48.7125C205.657 48.3645 207.242 47.8618 208.673 47.2045L209.891 52.0185C206.256 53.5651 202.235 54.3385 197.827 54.3385ZM200.321 36.9965C201.713 36.9965 202.989 36.6098 204.149 35.8365C205.309 35.0631 206.256 34.0191 206.991 32.7045C207.725 31.3511 208.131 29.8431 208.209 28.1805C208.325 26.4018 207.938 24.8938 207.049 23.6565C206.198 22.4191 204.845 21.8005 202.989 21.8005C201.442 21.8005 200.089 22.2645 198.929 23.1925C197.769 24.1205 196.86 25.3191 196.203 26.7885C195.545 28.2191 195.217 29.7658 195.217 31.4285C195.217 33.0911 195.642 34.4445 196.493 35.4885C197.382 36.4938 198.658 36.9965 200.321 36.9965ZM235.622 42.0425V0.282479H243.046V17.6825C244.012 16.0971 245.308 14.8598 246.932 13.9705C248.594 13.0425 250.489 12.5785 252.616 12.5785C256.173 12.5785 258.918 13.6998 260.852 15.9425C262.824 18.1851 263.81 21.4718 263.81 25.8025V42.0425H256.444V26.4985C256.444 24.0238 255.941 22.1291 254.936 20.8145C253.969 19.4998 252.422 18.8425 250.296 18.8425C248.208 18.8425 246.468 19.5771 245.076 21.0465C243.722 22.5158 243.046 24.5651 243.046 27.1945V42.0425H235.622ZM283.713 42.7385C280.929 42.7385 278.415 42.1005 276.173 40.8245C273.969 39.5485 272.209 37.7891 270.895 35.5465C269.619 33.2651 268.981 30.6358 268.981 27.6585C268.981 24.6811 269.638 22.0711 270.953 19.8285C272.267 17.5471 274.027 15.7685 276.231 14.4925C278.473 13.2165 280.987 12.5785 283.771 12.5785C286.516 12.5785 288.991 13.2165 291.195 14.4925C293.437 15.7685 295.197 17.5471 296.473 19.8285C297.787 22.0711 298.445 24.6811 298.445 27.6585C298.445 30.6358 297.787 33.2651 296.473 35.5465C295.197 37.7891 293.437 39.5485 291.195 40.8245C288.952 42.1005 286.458 42.7385 283.713 42.7385ZM283.713 36.3005C285.646 36.3005 287.328 35.5851 288.759 34.1545C290.189 32.6851 290.905 30.5198 290.905 27.6585C290.905 24.7971 290.189 22.6511 288.759 21.2205C287.328 19.7511 285.665 19.0165 283.771 19.0165C281.799 19.0165 280.097 19.7511 278.667 21.2205C277.275 22.6511 276.579 24.7971 276.579 27.6585C276.579 30.5198 277.275 32.6851 278.667 34.1545C280.097 35.5851 281.779 36.3005 283.713 36.3005ZM315.768 42.0425C312.752 42.0425 310.335 41.3078 308.518 39.8385C306.7 38.3691 305.792 35.7591 305.792 32.0085V19.4805H300.862V13.2745H305.792L306.662 5.56048H313.216V13.2745H320.988V19.4805H313.216V32.0665C313.216 33.4585 313.506 34.4251 314.086 34.9665C314.704 35.4691 315.748 35.7205 317.218 35.7205H320.814V42.0425H315.768ZM326.362 42.0425V13.2745H332.916L333.554 17.1605C334.482 15.7685 335.7 14.6665 337.208 13.8545C338.754 13.0038 340.533 12.5785 342.544 12.5785C346.99 12.5785 350.142 14.2991 351.998 17.7405C353.042 16.1551 354.434 14.8985 356.174 13.9705C357.952 13.0425 359.886 12.5785 361.974 12.5785C365.724 12.5785 368.605 13.6998 370.616 15.9425C372.626 18.1851 373.632 21.4718 373.632 25.8025V42.0425H366.208V26.4985C366.208 24.0238 365.724 22.1291 364.758 20.8145C363.83 19.4998 362.38 18.8425 360.408 18.8425C358.397 18.8425 356.773 19.5771 355.536 21.0465C354.337 22.5158 353.738 24.5651 353.738 27.1945V42.0425H346.314V26.4985C346.314 24.0238 345.83 22.1291 344.864 20.8145C343.897 19.4998 342.408 18.8425 340.398 18.8425C338.426 18.8425 336.821 19.5771 335.584 21.0465C334.385 22.5158 333.786 24.5651 333.786 27.1945V42.0425H326.362ZM389.598 42.7385C387.123 42.7385 385.093 42.3518 383.508 41.5785C381.923 40.7665 380.743 39.7031 379.97 38.3885C379.197 37.0738 378.81 35.6238 378.81 34.0385C378.81 31.3705 379.854 29.2051 381.942 27.5425C384.03 25.8798 387.162 25.0485 391.338 25.0485H398.646V24.3525C398.646 22.3805 398.085 20.9305 396.964 20.0025C395.843 19.0745 394.451 18.6105 392.788 18.6105C391.28 18.6105 389.965 18.9778 388.844 19.7125C387.723 20.4085 387.027 21.4525 386.756 22.8445H379.506C379.699 20.7565 380.395 18.9391 381.594 17.3925C382.831 15.8458 384.417 14.6665 386.35 13.8545C388.283 13.0038 390.449 12.5785 392.846 12.5785C396.945 12.5785 400.173 13.6031 402.532 15.6525C404.891 17.7018 406.07 20.6018 406.07 24.3525V42.0425H399.748L399.052 37.4025C398.201 38.9491 397.003 40.2251 395.456 41.2305C393.948 42.2358 391.995 42.7385 389.598 42.7385ZM391.28 36.9385C393.407 36.9385 395.05 36.2425 396.21 34.8505C397.409 33.4585 398.163 31.7378 398.472 29.6885H392.15C390.178 29.6885 388.767 30.0558 387.916 30.7905C387.065 31.4865 386.64 32.3565 386.64 33.4005C386.64 34.5218 387.065 35.3918 387.916 36.0105C388.767 36.6291 389.888 36.9385 391.28 36.9385ZM416.157 8.80848C414.803 8.80848 413.682 8.40248 412.793 7.59048C411.942 6.77848 411.517 5.75381 411.517 4.51648C411.517 3.27915 411.942 2.27381 412.793 1.50048C413.682 0.688478 414.803 0.282479 416.157 0.282479C417.51 0.282479 418.612 0.688478 419.463 1.50048C420.352 2.27381 420.797 3.27915 420.797 4.51648C420.797 5.75381 420.352 6.77848 419.463 7.59048C418.612 8.40248 417.51 8.80848 416.157 8.80848ZM412.445 42.0425V13.2745H419.869V42.0425H412.445ZM426.618 42.0425V0.282479H434.042V42.0425H426.618ZM443.817 42.4485C442.464 42.4485 441.343 42.0231 440.453 41.1725C439.603 40.3218 439.177 39.2971 439.177 38.0985C439.177 36.8611 439.603 35.8171 440.453 34.9665C441.343 34.1158 442.464 33.6905 443.817 33.6905C445.171 33.6905 446.273 34.1158 447.123 34.9665C448.013 35.8171 448.457 36.8611 448.457 38.0985C448.457 39.2971 448.013 40.3218 447.123 41.1725C446.273 42.0231 445.171 42.4485 443.817 42.4485ZM467.655 42.7385C464.716 42.7385 462.126 42.1005 459.883 40.8245C457.64 39.5485 455.862 37.7698 454.547 35.4885C453.271 33.2071 452.633 30.5971 452.633 27.6585C452.633 24.7198 453.271 22.1098 454.547 19.8285C455.862 17.5471 457.64 15.7685 459.883 14.4925C462.126 13.2165 464.716 12.5785 467.655 12.5785C471.328 12.5785 474.422 13.5451 476.935 15.4785C479.448 17.3731 481.053 20.0025 481.749 23.3665H473.919C473.532 21.9745 472.759 20.8918 471.599 20.1185C470.478 19.3065 469.144 18.9005 467.597 18.9005C465.548 18.9005 463.808 19.6738 462.377 21.2205C460.946 22.7671 460.231 24.9131 460.231 27.6585C460.231 30.4038 460.946 32.5498 462.377 34.0965C463.808 35.6431 465.548 36.4165 467.597 36.4165C469.144 36.4165 470.478 36.0298 471.599 35.2565C472.759 34.4831 473.532 33.3811 473.919 31.9505H481.749C481.053 35.1985 479.448 37.8085 476.935 39.7805C474.422 41.7525 471.328 42.7385 467.655 42.7385ZM501.142 42.7385C498.358 42.7385 495.845 42.1005 493.602 40.8245C491.398 39.5485 489.639 37.7891 488.324 35.5465C487.048 33.2651 486.41 30.6358 486.41 27.6585C486.41 24.6811 487.068 22.0711 488.382 19.8285C489.697 17.5471 491.456 15.7685 493.66 14.4925C495.903 13.2165 498.416 12.5785 501.2 12.5785C503.946 12.5785 506.42 13.2165 508.624 14.4925C510.867 15.7685 512.626 17.5471 513.902 19.8285C515.217 22.0711 515.874 24.6811 515.874 27.6585C515.874 30.6358 515.217 33.2651 513.902 35.5465C512.626 37.7891 510.867 39.5485 508.624 40.8245C506.382 42.1005 503.888 42.7385 501.142 42.7385ZM501.142 36.3005C503.076 36.3005 504.758 35.5851 506.188 34.1545C507.619 32.6851 508.334 30.5198 508.334 27.6585C508.334 24.7971 507.619 22.6511 506.188 21.2205C504.758 19.7511 503.095 19.0165 501.2 19.0165C499.228 19.0165 497.527 19.7511 496.096 21.2205C494.704 22.6511 494.008 24.7971 494.008 27.6585C494.008 30.5198 494.704 32.6851 496.096 34.1545C497.527 35.5851 499.209 36.3005 501.142 36.3005ZM521.512 42.0425V13.2745H528.066L528.704 17.1605C529.632 15.7685 530.85 14.6665 532.358 13.8545C533.905 13.0038 535.684 12.5785 537.694 12.5785C542.141 12.5785 545.292 14.2991 547.148 17.7405C548.192 16.1551 549.584 14.8985 551.324 13.9705C553.103 13.0425 555.036 12.5785 557.124 12.5785C560.875 12.5785 563.756 13.6998 565.766 15.9425C567.777 18.1851 568.782 21.4718 568.782 25.8025V42.0425H561.358V26.4985C561.358 24.0238 560.875 22.1291 559.908 20.8145C558.98 19.4998 557.53 18.8425 555.558 18.8425C553.548 18.8425 551.924 19.5771 550.686 21.0465C549.488 22.5158 548.888 24.5651 548.888 27.1945V42.0425H541.464V26.4985C541.464 24.0238 540.981 22.1291 540.014 20.8145C539.048 19.4998 537.559 18.8425 535.548 18.8425C533.576 18.8425 531.972 19.5771 530.734 21.0465C529.536 22.5158 528.936 24.5651 528.936 27.1945V42.0425H521.512Z" fill="url(#paint0_linear_5_61)"/>
<defs>
<linearGradient id="paint0_linear_5_61" x1="-244.211" y1="26.5214" x2="767" y2="26.5215" gradientUnits="userSpaceOnUse">
<stop offset="0.0260229" stop-color="#13B0F5"/>
<stop offset="0.570116" stop-color="#8956CB"/>
<stop offset="1" stop-color="#E70FAA"/>
</linearGradient>
</defs>
</svg>
