<svg width="134" height="127" viewBox="0 0 134 127" fill="none" xmlns="http://www.w3.org/2000/svg">
<path d="M44.8411 127C57.1692 127 67.1745 117.517 67.1745 105.833V84.6667H44.8411C32.5131 84.6667 22.5078 94.1494 22.5078 105.833C22.5078 117.517 32.5131 127 44.8411 127Z" fill="#0ACF83"/>
<path d="M22.5078 63.5C22.5078 51.816 32.5131 42.3333 44.8411 42.3333H67.1745V84.6666H44.8411C32.5131 84.6666 22.5078 75.184 22.5078 63.5Z" fill="#A259FF"/>
<path d="M22.5078 21.1667C22.5078 9.48267 32.5131 0 44.8411 0H67.1745V42.3333H44.8411C32.5131 42.3333 22.5078 32.8507 22.5078 21.1667Z" fill="#F24E1E"/>
<path d="M67.1745 0H89.5078C101.836 0 111.841 9.48267 111.841 21.1667C111.841 32.8507 101.836 42.3333 89.5078 42.3333H67.1745V0Z" fill="#FF7262"/>
<path d="M111.841 63.5C111.841 75.184 101.836 84.6666 89.5078 84.6666C77.1798 84.6666 67.1745 75.184 67.1745 63.5C67.1745 51.816 77.1798 42.3333 89.5078 42.3333C101.836 42.3333 111.841 51.816 111.841 63.5Z" fill="#1ABCFE"/>
</svg>
