<svg width="64" height="146" viewBox="0 0 64 146" fill="none" xmlns="http://www.w3.org/2000/svg">
<g clip-path="url(#clip0_4_499)">
<g clip-path="url(#clip1_4_499)">
<g clip-path="url(#clip2_4_499)">
<path fill-rule="evenodd" clip-rule="evenodd" d="M35.0534 142.317L31.27 141.024C31.27 141.024 31.7319 121.738 24.8109 120.354C20.1968 115.001 25.5491 -106.659 42.1593 119.615C42.1593 119.615 36.4384 122.476 35.423 127.367C34.3152 132.166 35.0534 142.317 35.0534 142.317Z" fill="white"/>
<path fill-rule="evenodd" clip-rule="evenodd" d="M35.0534 142.317L31.27 141.024C31.27 141.024 31.7319 121.738 24.8109 120.354C20.1968 115.001 25.5491 -106.659 42.1593 119.615C42.1593 119.615 36.4384 122.476 35.423 127.367C34.3152 132.166 35.0534 142.317 35.0534 142.317Z" fill="#A6A385"/>
<path fill-rule="evenodd" clip-rule="evenodd" d="M37.0842 123.676C37.0842 123.676 70.2131 101.898 62.4614 56.5868C54.9869 23.6427 37.3605 12.8458 35.423 8.69279C33.3007 5.73994 31.27 0.572449 31.27 0.572449L32.6549 92.2075C32.6549 92.2999 29.7936 120.261 37.0842 123.676Z" fill="white"/>
<path fill-rule="evenodd" clip-rule="evenodd" d="M37.0842 123.676C37.0842 123.676 70.2131 101.898 62.4614 56.5868C54.9869 23.6427 37.3605 12.8458 35.423 8.69279C33.3007 5.73994 31.27 0.572449 31.27 0.572449L32.6549 92.2075C32.6549 92.2999 29.7936 120.261 37.0842 123.676Z" fill="#499D4A"/>
<path fill-rule="evenodd" clip-rule="evenodd" d="M29.3325 124.875C29.3325 124.875 -1.76652 103.65 0.0794402 66.2768C1.83216 28.9025 23.7955 10.5387 28.04 7.21633C30.8089 4.26348 30.9013 3.15573 31.0861 0.202881C33.0236 4.35587 32.6549 62.3086 32.9312 69.1372C33.7618 95.4375 31.4548 119.893 29.3325 124.875Z" fill="white"/>
<path fill-rule="evenodd" clip-rule="evenodd" d="M29.3325 124.875C29.3325 124.875 -1.76652 103.65 0.0794402 66.2768C1.83216 28.9025 23.7955 10.5387 28.04 7.21633C30.8089 4.26348 30.9013 3.15573 31.0861 0.202881C33.0236 4.35587 32.6549 62.3086 32.9312 69.1372C33.7618 95.4375 31.4548 119.893 29.3325 124.875Z" fill="#58AA50"/>
</g>
</g>
</g>
<defs>
<clipPath id="clip0_4_499">
<rect width="64" height="146" fill="white"/>
</clipPath>
<clipPath id="clip1_4_499">
<rect width="512" height="146" fill="white"/>
</clipPath>
<clipPath id="clip2_4_499">
<rect width="64" height="143" fill="white"/>
</clipPath>
</defs>
</svg>
