<svg width="166" height="164" viewBox="0 0 166 164" fill="none" xmlns="http://www.w3.org/2000/svg">
<path fill-rule="evenodd" clip-rule="evenodd" d="M35.6465 83.875C35.6465 83.2077 35.2713 82.5775 34.6709 82.2439L18.7613 73.1986C18.4986 73.0504 18.1985 72.9762 17.8983 72.9391H17.7482C17.448 72.9391 17.1478 73.0504 16.8852 73.1986L0.975588 82.2439C0.375226 82.5775 0 83.2077 0 83.875L0.0375226 108.193C0.0375226 108.527 0.225136 108.86 0.525317 109.009C0.825497 109.194 1.20072 109.194 1.46338 109.009L10.9191 103.671C11.5194 103.337 11.8947 102.707 11.8947 102.04V90.6589C11.8947 89.9916 12.2699 89.3614 12.8703 89.0278L16.8852 86.7294C17.1854 86.544 17.5231 86.4699 17.8608 86.4699C18.1985 86.4699 18.5362 86.544 18.7988 86.7294L22.8137 89.0278C23.4141 89.3614 23.7893 89.9916 23.7893 90.6589V102.04C23.7893 102.707 24.1646 103.337 24.7649 103.671L34.2206 109.009C34.5208 109.194 34.896 109.194 35.1962 109.009C35.4964 108.86 35.684 108.527 35.684 108.193L35.6465 83.875V83.875V83.875Z" fill="white"/>
<path fill-rule="evenodd" clip-rule="evenodd" d="M112.117 50.4003C111.817 50.252 111.442 50.252 111.179 50.4003C110.879 50.5856 110.691 50.8822 110.691 51.2158V75.3117C110.691 75.5341 110.579 75.7565 110.354 75.9048C110.129 76.016 109.903 76.016 109.678 75.9048L105.701 73.6435C105.101 73.3099 104.388 73.3099 103.787 73.6435L87.8777 82.7258C87.2773 83.0594 86.9021 83.6896 86.9021 84.3569V102.484C86.9021 103.152 87.2773 103.782 87.8777 104.115L103.787 113.198C104.388 113.531 105.101 113.531 105.701 113.198L121.611 104.115C122.211 103.782 122.586 103.152 122.586 102.484V57.2954C122.586 56.5911 122.211 55.9609 121.611 55.6272L112.117 50.4003V50.4003V50.4003ZM110.654 96.516C110.654 96.7014 110.579 96.8496 110.429 96.9238L104.988 100.038C104.838 100.112 104.65 100.112 104.5 100.038L99.0593 96.9238C98.9092 96.8496 98.8342 96.6643 98.8342 96.516V90.2882C98.8342 90.1028 98.9092 89.9545 99.0593 89.8804L104.5 86.7665C104.65 86.6923 104.838 86.6923 104.988 86.7665L110.429 89.8804C110.579 89.9545 110.654 90.1399 110.654 90.2882V96.516V96.516V96.516Z" fill="white"/>
<path fill-rule="evenodd" clip-rule="evenodd" d="M165.062 90.1399C165.662 89.8062 166 89.176 166 88.5088V84.0974C166 83.4301 165.625 82.7999 165.062 82.4663L149.265 73.4211C148.665 73.0874 147.952 73.0874 147.351 73.4211L131.442 82.5033C130.841 82.837 130.466 83.4672 130.466 84.1344V102.262C130.466 102.929 130.841 103.559 131.442 103.893L147.239 112.79C147.839 113.124 148.552 113.124 149.115 112.79L158.683 107.526C158.983 107.378 159.171 107.044 159.171 106.71C159.171 106.377 158.983 106.043 158.683 105.895L142.698 96.8126C142.398 96.6272 142.211 96.3307 142.211 95.997V90.3252C142.211 89.9916 142.398 89.658 142.698 89.5097L147.689 86.6923C147.989 86.507 148.364 86.507 148.665 86.6923L153.655 89.5097C153.955 89.695 154.143 89.9916 154.143 90.3252V94.7737C154.143 95.1073 154.33 95.441 154.631 95.5892C154.931 95.7746 155.306 95.7746 155.606 95.5892L165.062 90.1399V90.1399V90.1399Z" fill="white"/>
<path fill-rule="evenodd" clip-rule="evenodd" d="M148.064 89.2873C148.177 89.2132 148.327 89.2132 148.439 89.2873L151.479 91.0296C151.591 91.1038 151.666 91.215 151.666 91.3632V94.8479C151.666 94.9962 151.591 95.1074 151.479 95.1815L148.439 96.9238C148.327 96.998 148.177 96.998 148.064 96.9238L145.025 95.1815C144.912 95.1074 144.837 94.9962 144.837 94.8479V91.3632C144.837 91.215 144.912 91.1038 145.025 91.0296L148.064 89.2873V89.2873V89.2873Z" fill="#539E43"/>
<path fill-rule="evenodd" clip-rule="evenodd" d="M62.2499 73.4952C61.6496 73.1616 60.9366 73.1616 60.3363 73.4952L44.5393 82.5034C43.9389 82.837 43.6012 83.4672 43.6012 84.1345V102.188C43.6012 102.855 43.9764 103.485 44.5393 103.819L60.3363 112.827C60.9366 113.161 61.6496 113.161 62.2499 112.827L78.047 103.819C78.6473 103.485 78.985 102.855 78.985 102.188V84.1345C78.985 83.4672 78.6098 82.837 78.047 82.5034L62.2499 73.4952V73.4952V73.4952Z" fill="white"/>
<path fill-rule="evenodd" clip-rule="evenodd" d="M62.2499 73.4952C61.6496 73.1616 60.9366 73.1616 60.3363 73.4952L44.5393 82.5034C43.9389 82.837 43.6012 83.4672 43.6012 84.1345V102.188C43.6012 102.855 43.9764 103.485 44.5393 103.819L60.3363 112.827C60.9366 113.161 61.6496 113.161 62.2499 112.827L78.047 103.819C78.6473 103.485 78.985 102.855 78.985 102.188V84.1345C78.985 83.4672 78.6098 82.837 78.047 82.5034L62.2499 73.4952V73.4952V73.4952Z" fill="url(#paint0_linear_5_232)"/>
<mask id="mask0_5_232" style="mask-type:luminance" maskUnits="userSpaceOnUse" x="43" y="73" width="36" height="41">
<path fill-rule="evenodd" clip-rule="evenodd" d="M62.2499 73.4952C61.6496 73.1616 60.9366 73.1616 60.3363 73.4952L44.5393 82.5034C43.9389 82.837 43.6012 83.4672 43.6012 84.1345V102.188C43.6012 102.855 43.9764 103.485 44.5393 103.819L60.3363 112.827C60.9366 113.161 61.6496 113.161 62.2499 112.827L78.047 103.819C78.6473 103.485 78.985 102.855 78.985 102.188V84.1345C78.985 83.4672 78.6098 82.837 78.047 82.5034L62.2499 73.4952V73.4952V73.4952Z" fill="white"/>
</mask>
<g mask="url(#mask0_5_232)">
<path fill-rule="evenodd" clip-rule="evenodd" d="M78.0848 82.5034L62.2127 73.4952C62.0626 73.4211 61.875 73.3469 61.7249 73.3099L43.9392 103.411C44.0893 103.597 44.2769 103.745 44.4645 103.856L60.3366 112.864C60.7869 113.124 61.3122 113.198 61.8 113.049L78.4975 82.8741C78.385 82.7258 78.2349 82.6146 78.0848 82.5034V82.5034V82.5034Z" fill="url(#paint1_linear_5_232)"/>
</g>
<mask id="mask1_5_232" style="mask-type:luminance" maskUnits="userSpaceOnUse" x="43" y="73" width="36" height="41">
<path fill-rule="evenodd" clip-rule="evenodd" d="M62.2499 73.4952C61.6496 73.1616 60.9366 73.1616 60.3363 73.4952L44.5393 82.5034C43.9389 82.837 43.6012 83.4672 43.6012 84.1345V102.188C43.6012 102.855 43.9764 103.485 44.5393 103.819L60.3363 112.827C60.9366 113.161 61.6496 113.161 62.2499 112.827L78.047 103.819C78.6473 103.485 78.985 102.855 78.985 102.188V84.1345C78.985 83.4672 78.6098 82.837 78.047 82.5034L62.2499 73.4952V73.4952V73.4952Z" fill="white"/>
</mask>
<g mask="url(#mask1_5_232)">
<path fill-rule="evenodd" clip-rule="evenodd" d="M78.122 103.819C78.5723 103.559 78.91 103.115 79.0601 102.633L61.6496 73.2728C61.1993 73.1987 60.7116 73.2357 60.2988 73.4952L44.5393 82.4663L61.5371 113.087C61.7622 113.049 62.0248 112.975 62.25 112.864L78.122 103.819V103.819V103.819Z" fill="url(#paint2_linear_5_232)"/>
<path fill-rule="evenodd" clip-rule="evenodd" d="M78.1221 103.819L62.2875 112.827C62.0624 112.938 61.8372 113.012 61.5746 113.049L61.8748 113.606L79.4353 103.559V103.337L78.9851 102.596C78.91 103.115 78.5723 103.559 78.1221 103.819V103.819V103.819Z" fill="url(#paint3_linear_5_232)"/>
<path fill-rule="evenodd" clip-rule="evenodd" d="M78.1221 103.819L62.2875 112.827C62.0624 112.938 61.8372 113.012 61.5746 113.049L61.8748 113.606L79.4353 103.559V103.337L78.9851 102.596C78.91 103.115 78.5723 103.559 78.1221 103.819V103.819V103.819Z" fill="url(#paint4_linear_5_232)"/>
</g>
<defs>
<linearGradient id="paint0_linear_5_232" x1="57.8812" y1="75.147" x2="41.3077" y2="95.4485" gradientUnits="userSpaceOnUse">
<stop stop-color="#41873F"/>
<stop offset="0.3288" stop-color="#418B3D"/>
<stop offset="0.6352" stop-color="#419637"/>
<stop offset="0.9319" stop-color="#3FA92D"/>
<stop offset="1" stop-color="#3FAE2A"/>
</linearGradient>
<linearGradient id="paint1_linear_5_232" x1="68.2304" y1="117.817" x2="110.151" y2="100.866" gradientUnits="userSpaceOnUse">
<stop offset="0.1376" stop-color="#41873F"/>
<stop offset="0.4032" stop-color="#54A044"/>
<stop offset="0.7136" stop-color="#66B848"/>
<stop offset="0.9081" stop-color="#6CC04A"/>
</linearGradient>
<linearGradient id="paint2_linear_5_232" x1="43.0243" y1="114.259" x2="79.5777" y2="114.259" gradientUnits="userSpaceOnUse">
<stop offset="0.0919165" stop-color="#6CC04A"/>
<stop offset="0.2864" stop-color="#66B848"/>
<stop offset="0.5968" stop-color="#54A044"/>
<stop offset="0.8624" stop-color="#41873F"/>
</linearGradient>
<linearGradient id="paint3_linear_5_232" x1="43.0243" y1="119.397" x2="79.5777" y2="119.397" gradientUnits="userSpaceOnUse">
<stop offset="0.0919165" stop-color="#6CC04A"/>
<stop offset="0.2864" stop-color="#66B848"/>
<stop offset="0.5968" stop-color="#54A044"/>
<stop offset="0.8624" stop-color="#41873F"/>
</linearGradient>
<linearGradient id="paint4_linear_5_232" x1="39.2569" y1="76.6519" x2="35.8927" y2="122.484" gradientUnits="userSpaceOnUse">
<stop stop-color="#41873F"/>
<stop offset="0.3288" stop-color="#418B3D"/>
<stop offset="0.6352" stop-color="#419637"/>
<stop offset="0.9319" stop-color="#3FA92D"/>
<stop offset="1" stop-color="#3FAE2A"/>
</linearGradient>
</defs>
</svg>
