<svg width="119" height="119" viewBox="0 0 119 119" fill="none" xmlns="http://www.w3.org/2000/svg">
<g clip-path="url(#clip0_4_391)">
<path d="M58.9289 0.464844C28.792 0.464846 30.6739 13.534 30.6739 13.534L30.7075 27.0735H59.4664V31.1388H19.2846C19.2846 31.1388 0 28.9517 0 59.3601C-2.14944e-06 89.7685 16.832 88.6901 16.832 88.6901H26.8775V74.5795C26.8775 74.5795 26.336 57.7475 43.4407 57.7475H71.9644C71.9644 57.7475 87.9901 58.0065 87.9901 42.2593V16.2218C87.9901 16.2218 90.4233 0.464844 58.9289 0.464844ZM43.0711 9.56959C45.9324 9.56958 48.2451 11.8822 48.2451 14.7435C48.2451 17.6048 45.9324 19.9174 43.0711 19.9174C40.2098 19.9174 37.8972 17.6048 37.8972 14.7435C37.8972 11.8822 40.2098 9.56959 43.0711 9.56959Z" fill="url(#paint0_linear_4_391)"/>
<path d="M59.7847 118.56C89.9216 118.56 88.0397 105.491 88.0397 105.491L88.0061 91.9515H59.2472V87.8863H99.429C99.429 87.8863 118.714 90.0734 118.714 59.665C118.714 29.2566 101.882 30.3349 101.882 30.3349H91.8361V44.4456C91.8361 44.4456 92.3776 61.2776 75.2729 61.2776H46.7492C46.7492 61.2776 30.7235 61.0186 30.7235 76.7658V102.803C30.7235 102.803 28.2903 118.56 59.7847 118.56ZM75.6425 109.455C72.7812 109.455 70.4685 107.143 70.4685 104.282C70.4685 101.42 72.7812 99.1077 75.6425 99.1077C78.5038 99.1077 80.8164 101.42 80.8164 104.282C80.8164 107.143 78.5038 109.455 75.6425 109.455Z" fill="url(#paint1_linear_4_391)"/>
</g>
<defs>
<linearGradient id="paint0_linear_4_391" x1="11.4086" y1="11.0872" x2="70.2387" y2="69.3304" gradientUnits="userSpaceOnUse">
<stop stop-color="#387EB8"/>
<stop offset="1" stop-color="#366994"/>
</linearGradient>
<linearGradient id="paint1_linear_4_391" x1="47.5186" y1="48.4872" x2="110.696" y2="108.211" gradientUnits="userSpaceOnUse">
<stop stop-color="#FFE052"/>
<stop offset="1" stop-color="#FFC331"/>
</linearGradient>
<clipPath id="clip0_4_391">
<rect width="119" height="119" fill="white"/>
</clipPath>
</defs>
</svg>
