<svg width="59" height="55" viewBox="0 0 59 55" fill="none" xmlns="http://www.w3.org/2000/svg">
<g clip-path="url(#clip0_8_348)">
<path d="M48.5084 17.8084C47.8806 17.5829 47.2474 17.374 46.6095 17.1819C46.7167 16.7236 46.8153 16.2708 46.9029 15.826C48.3404 8.52134 47.4006 2.63658 44.1907 0.699037C41.1131 -1.15842 36.0798 0.778401 30.9966 5.40926C30.4956 5.86646 30.0057 6.33685 29.5274 6.81996C29.2073 6.49871 28.8814 6.18369 28.5501 5.87507C23.2226 0.923621 17.8826 -1.16324 14.6761 0.779848C11.6012 2.64309 10.6907 8.17518 11.9849 15.0979C12.1137 15.7836 12.2591 16.4657 12.4209 17.1436C11.6651 17.3684 10.9357 17.6077 10.2376 17.8624C3.99154 20.142 0.00268555 23.7144 0.00268555 27.4199C0.00268555 31.247 4.2849 35.0856 10.7905 37.4132C11.3179 37.6012 11.8497 37.7753 12.3854 37.9355C12.2115 38.6656 12.057 39.4007 11.9222 40.1398C10.6884 46.9425 11.6519 52.3438 14.7185 54.1952C17.8858 56.1072 23.2018 54.1422 28.378 49.4056C28.7977 49.0206 29.2082 48.6246 29.609 48.2181C30.127 48.7412 30.6587 49.2491 31.2037 49.7412C36.2178 54.2575 41.1698 56.0811 44.2334 54.2247C47.3977 52.3071 48.4262 46.5046 47.0909 39.4451C46.9857 38.892 46.8678 38.3417 46.7372 37.7946C47.1105 37.6788 47.4769 37.5597 47.8341 37.4357C54.5974 35.0902 58.9978 31.2981 58.9978 27.4199C58.9978 23.7009 54.8801 20.1044 48.5084 17.8084V17.8084ZM47.0416 34.9317C46.719 35.0434 46.3881 35.1512 46.0507 35.2562C45.304 32.7819 44.2965 30.1511 43.0634 27.4327C44.24 24.7791 45.2088 22.1818 45.9345 19.7237C46.5381 19.9066 47.1236 20.0993 47.6883 20.3027C53.1476 22.2701 56.4776 25.1786 56.4776 27.4199C56.4776 29.8071 52.8812 32.9061 47.0416 34.9317V34.9317ZM44.6187 39.9575C45.2091 43.079 45.2932 45.9013 44.9021 48.1078C44.5509 50.0905 43.8444 51.4122 42.9705 51.9417C41.1114 53.0682 37.1355 51.604 32.8475 47.7414C32.3406 47.2839 31.846 46.8117 31.3641 46.3254C33.0266 44.4223 34.6879 42.21 36.3093 39.7529C39.1614 39.488 41.8558 39.0548 44.2993 38.4635C44.417 38.9588 44.5235 39.4569 44.6187 39.9575V39.9575ZM20.1154 51.747C18.299 52.4183 16.8522 52.4376 15.9777 51.9098C14.1168 50.7864 13.3432 46.4494 14.3984 40.6319C14.5239 39.9445 14.6675 39.2608 14.8291 38.5817C17.2456 39.1414 19.9204 39.5438 22.7792 39.7864C24.4117 42.1907 26.1209 44.4006 27.8435 46.3358C27.4775 46.7066 27.1027 47.0679 26.7196 47.4194C24.4306 49.5137 22.1369 50.9997 20.1154 51.747V51.747ZM11.6058 34.917C8.72912 33.8877 6.35342 32.5501 4.72506 31.0904C3.2617 29.7788 2.52311 28.4764 2.52311 27.4199C2.52311 25.1711 5.72567 22.3029 11.0673 20.3536C11.7155 20.1172 12.394 19.894 13.098 19.6847C13.8363 22.1982 14.8047 24.8264 15.9733 27.484C14.7895 30.181 13.8073 32.8511 13.0618 35.3944C12.5728 35.2478 12.0873 35.0886 11.6058 34.917V34.917ZM14.4583 14.5911C13.3496 8.66005 14.0859 4.18599 15.939 3.06307C17.9125 1.86706 22.2768 3.5723 26.8768 7.84783C27.1768 8.12727 27.4719 8.41236 27.762 8.70298C26.0479 10.6297 24.3543 12.8232 22.7363 15.2132C19.9617 15.4825 17.3058 15.9147 14.8639 16.4939C14.7135 15.8634 14.5782 15.229 14.4583 14.5914V14.5911ZM39.9062 21.1689C39.3294 20.1261 38.7313 19.0964 38.1121 18.0805C39.9945 18.3297 41.798 18.6604 43.4915 19.0647C42.9832 20.7707 42.3494 22.5541 41.6035 24.3826C41.0582 23.2996 40.4923 22.2282 39.9062 21.1689V21.1689ZM29.5286 10.5884C30.691 11.9067 31.8552 13.3785 33.0003 14.9754C30.6774 14.8606 28.3506 14.8601 26.0276 14.9739C27.1739 13.3917 28.348 11.9219 29.5286 10.5884ZM19.0844 21.187C18.5056 22.2378 17.9503 23.3025 17.4189 24.3804C16.6852 22.5584 16.0572 20.7668 15.5444 19.0367C17.2276 18.6425 19.0226 18.3203 20.8929 18.0757C20.2669 19.0977 19.6639 20.1351 19.0844 21.1868V21.187ZM20.9466 36.9518C19.0143 36.726 17.1924 36.4203 15.5096 36.0368C16.0305 34.2758 16.6723 32.4461 17.4219 30.585C17.9554 31.6637 18.513 32.7291 19.0943 33.7803C19.6921 34.861 20.3111 35.9195 20.9466 36.9518ZM29.5982 44.4371C28.4035 43.0881 27.2121 41.5956 26.0486 39.9905C27.1782 40.0368 28.3298 40.0605 29.5002 40.0605C30.7027 40.0605 31.8914 40.0322 33.0614 39.9777C31.9126 41.6118 30.7527 43.1065 29.5982 44.4371ZM41.6272 30.49C42.4158 32.3716 43.0804 34.1916 43.6081 35.9224C41.8977 36.3311 40.0509 36.6601 38.105 36.9045C38.7285 35.8697 39.3324 34.8221 39.9161 33.7622C40.5096 32.6849 41.0801 31.5939 41.6272 30.49V30.49ZM37.7331 32.4442C36.8394 34.0692 35.8955 35.6633 34.9029 37.2241C33.1048 37.3574 31.3028 37.4236 29.5002 37.4226C27.6642 37.4226 25.8785 37.3628 24.1589 37.2461C23.1403 35.6889 22.1785 34.0919 21.2753 32.4586H21.2755C20.3766 30.834 19.5369 29.1742 18.7583 27.4828C19.5349 25.7911 20.372 24.1305 21.2679 22.5046L21.2677 22.5048C22.1632 20.8785 23.1174 19.2884 24.1282 17.7379C25.8826 17.599 27.6818 17.5266 29.5 17.5266H29.5002C31.3268 17.5266 33.1282 17.5997 34.8822 17.7396C35.8828 19.2878 36.8309 20.8724 37.7248 22.4906C38.6236 24.1129 39.4718 25.7654 40.268 27.4454C39.48 29.1427 38.6345 30.81 37.7331 32.4442V32.4442ZM42.932 2.98443C44.9074 4.17706 45.6757 8.98643 44.4345 15.2933C44.3553 15.6957 44.2663 16.1055 44.1695 16.5212C41.7217 15.9297 39.0639 15.4899 36.2812 15.2166C34.6602 12.8002 32.9805 10.6034 31.2943 8.70154C31.7362 8.25563 32.1886 7.82129 32.6512 7.39891C37.0067 3.43143 41.0773 1.86489 42.932 2.98443V2.98443ZM29.5002 21.9054C32.4097 21.9054 34.7683 24.3744 34.7683 27.4199C34.7683 30.4654 32.4097 32.9343 29.5002 32.9343C26.5908 32.9343 24.2322 30.4654 24.2322 27.4199C24.2322 24.3744 26.5908 21.9054 29.5002 21.9054V21.9054Z" fill="#00D8FF"/>
</g>
<defs>
<clipPath id="clip0_8_348">
<rect width="59" height="55" fill="white"/>
</clipPath>
</defs>
</svg>
